HIERARCHY
ROOT mixamorig:Hips
{
	OFFSET 0.000000 103.991501 0.000000
	CHANNELS 6 Xposition Yposition Zposition Xrotation Yrotation Zrotation
	JOINT mixamorig:Spine
	{
		OFFSET 0.000000 10.181602 0.131500
		CHANNELS 3 Xrotation Yrotation Zrotation
		JOINT mixamorig:Spine1
		{
			OFFSET 0.000000 10.083504 -1.000800
			CHANNELS 3 Xrotation Yrotation Zrotation
			JOINT mixamorig:Spine2
			{
				OFFSET 0.000000 9.100006 -1.373400
				CHANNELS 3 Xrotation Yrotation Zrotation
				JOINT mixamorig:Neck
				{
					OFFSET 0.000000 16.671707 -2.516200
					CHANNELS 3 Xrotation Yrotation Zrotation
					JOINT mixamorig:Head
					{
						OFFSET 0.000000 9.617905 1.685000
						CHANNELS 3 Xrotation Yrotation Zrotation
						JOINT mixamorig:HeadTop_End
						{
							OFFSET 0.000000 17.815201 2.585000
							CHANNELS 3 Xrotation Yrotation Zrotation
							End Site
							{
								OFFSET 0.000000 13.794495 0.000000
							}
						}
						JOINT mixamorig:LeftEye
						{
							OFFSET 3.067600 6.409500 9.283600
							CHANNELS 3 Xrotation Yrotation Zrotation
							End Site
							{
								OFFSET 0.000000 13.794495 0.000000
							}
						}
						JOINT mixamorig:RightEye
						{
							OFFSET -3.067600 6.409500 9.283500
							CHANNELS 3 Xrotation Yrotation Zrotation
							End Site
							{
								OFFSET 0.000000 13.794495 0.000000
							}
						}
					}
				}
				JOINT mixamorig:LeftShoulder
				{
					OFFSET 4.570400 10.945999 -2.628000
					CHANNELS 3 Xrotation Yrotation Zrotation
					JOINT mixamorig:LeftArm
					{
						OFFSET 10.592400 -0.524597 -2.232100
						CHANNELS 3 Xrotation Yrotation Zrotation
						JOINT mixamorig:LeftForeArm
						{
							OFFSET 27.841499 0.000000 0.000000
							CHANNELS 3 Xrotation Yrotation Zrotation
							JOINT mixamorig:LeftHand
							{
								OFFSET 28.328800 0.000000 0.000000
								CHANNELS 3 Xrotation Yrotation Zrotation
								JOINT mixamorig:LeftHandThumb1
								{
									OFFSET 2.466103 -1.576218 2.681689
									CHANNELS 3 Xrotation Yrotation Zrotation
									JOINT mixamorig:LeftHandThumb2
									{
										OFFSET 3.229782 -1.864716 1.864716
										CHANNELS 3 Xrotation Yrotation Zrotation
										JOINT mixamorig:LeftHandThumb3
										{
											OFFSET 2.652611 -1.531494 1.531488
											CHANNELS 3 Xrotation Yrotation Zrotation
											JOINT mixamorig:LeftHandThumb4
											{
												OFFSET 1.954605 -1.128494 1.128493
												CHANNELS 3 Xrotation Yrotation Zrotation
												End Site
												{
													OFFSET -0.000404 2.523392 0.000683
												}
											}
										}
									}
								}
								JOINT mixamorig:LeftHandIndex1
								{
									OFFSET 9.109299 -0.518112 2.259867
									CHANNELS 3 Xrotation Yrotation Zrotation
									JOINT mixamorig:LeftHandIndex2
									{
										OFFSET 3.676399 0.000000 0.000000
										CHANNELS 3 Xrotation Yrotation Zrotation
										JOINT mixamorig:LeftHandIndex3
										{
											OFFSET 2.883102 0.000000 0.000000
											CHANNELS 3 Xrotation Yrotation Zrotation
											JOINT mixamorig:LeftHandIndex4
											{
												OFFSET 2.392700 0.000000 0.000000
												CHANNELS 3 Xrotation Yrotation Zrotation
												End Site
												{
													OFFSET 0.000000 2.392700 0.001080
												}
											}
										}
									}
								}
								JOINT mixamorig:LeftHandMiddle1
								{
									OFFSET 9.533401 0.000000 0.000000
									CHANNELS 3 Xrotation Yrotation Zrotation
									JOINT mixamorig:LeftHandMiddle2
									{
										OFFSET 3.698196 0.000000 0.000000
										CHANNELS 3 Xrotation Yrotation Zrotation
										JOINT mixamorig:LeftHandMiddle3
										{
											OFFSET 2.950897 0.000000 0.000000
											CHANNELS 3 Xrotation Yrotation Zrotation
											JOINT mixamorig:LeftHandMiddle4
											{
												OFFSET 2.833900 0.000000 0.000000
												CHANNELS 3 Xrotation Yrotation Zrotation
												End Site
												{
													OFFSET 0.000000 2.833893 0.001278
												}
											}
										}
									}
								}
								JOINT mixamorig:LeftHandRing1
								{
									OFFSET 9.104500 -0.043060 -1.865119
									CHANNELS 3 Xrotation Yrotation Zrotation
									JOINT mixamorig:LeftHandRing2
									{
										OFFSET 3.153999 0.000000 0.000000
										CHANNELS 3 Xrotation Yrotation Zrotation
										JOINT mixamorig:LeftHandRing3
										{
											OFFSET 2.937698 0.000000 0.000000
											CHANNELS 3 Xrotation Yrotation Zrotation
											JOINT mixamorig:LeftHandRing4
											{
												OFFSET 2.647499 0.000000 0.000000
												CHANNELS 3 Xrotation Yrotation Zrotation
												End Site
												{
													OFFSET 0.000000 2.647507 0.001195
												}
											}
										}
									}
								}
								JOINT mixamorig:LeftHandPinky1
								{
									OFFSET 8.077797 -0.486984 -3.806321
									CHANNELS 3 Xrotation Yrotation Zrotation
									JOINT mixamorig:LeftHandPinky2
									{
										OFFSET 3.599998 0.000000 0.000000
										CHANNELS 3 Xrotation Yrotation Zrotation
										JOINT mixamorig:LeftHandPinky3
										{
											OFFSET 2.114197 0.000000 0.000000
											CHANNELS 3 Xrotation Yrotation Zrotation
											JOINT mixamorig:LeftHandPinky4
											{
												OFFSET 1.975700 0.000000 0.000000
												CHANNELS 3 Xrotation Yrotation Zrotation
												End Site
												{
													OFFSET 0.000000 1.975693 0.000892
												}
											}
										}
									}
								}
							}
						}
					}
				}
				JOINT mixamorig:RightShoulder
				{
					OFFSET -4.570000 10.946198 -2.628000
					CHANNELS 3 Xrotation Yrotation Zrotation
					JOINT mixamorig:RightArm
					{
						OFFSET -10.592800 -0.524796 -2.232100
						CHANNELS 3 Xrotation Yrotation Zrotation
						JOINT mixamorig:RightForeArm
						{
							OFFSET -27.841499 0.000000 0.000000
							CHANNELS 3 Xrotation Yrotation Zrotation
							JOINT mixamorig:RightHand
							{
								OFFSET -28.328800 0.000000 0.000000
								CHANNELS 3 Xrotation Yrotation Zrotation
								JOINT mixamorig:RightHandPinky1
								{
									OFFSET -8.076698 -0.486725 -3.806227
									CHANNELS 3 Xrotation Yrotation Zrotation
									JOINT mixamorig:RightHandPinky2
									{
										OFFSET -3.599998 0.000000 0.000000
										CHANNELS 3 Xrotation Yrotation Zrotation
										JOINT mixamorig:RightHandPinky3
										{
											OFFSET -2.114197 0.000000 0.000000
											CHANNELS 3 Xrotation Yrotation Zrotation
											JOINT mixamorig:RightHandPinky4
											{
												OFFSET -1.975700 0.000000 0.000000
												CHANNELS 3 Xrotation Yrotation Zrotation
												End Site
												{
													OFFSET 0.000000 1.975693 0.000919
												}
											}
										}
									}
								}
								JOINT mixamorig:RightHandRing1
								{
									OFFSET -9.103600 -0.043030 -1.865120
									CHANNELS 3 Xrotation Yrotation Zrotation
									JOINT mixamorig:RightHandRing2
									{
										OFFSET -3.153999 0.000000 0.000000
										CHANNELS 3 Xrotation Yrotation Zrotation
										JOINT mixamorig:RightHandRing3
										{
											OFFSET -2.937698 0.000000 0.000000
											CHANNELS 3 Xrotation Yrotation Zrotation
											JOINT mixamorig:RightHandRing4
											{
												OFFSET -2.647499 0.000000 0.000000
												CHANNELS 3 Xrotation Yrotation Zrotation
												End Site
												{
													OFFSET 0.000000 2.647507 0.001231
												}
											}
										}
									}
								}
								JOINT mixamorig:RightHandMiddle1
								{
									OFFSET -9.532501 0.000000 0.000000
									CHANNELS 3 Xrotation Yrotation Zrotation
									JOINT mixamorig:RightHandMiddle2
									{
										OFFSET -3.698196 0.000000 0.000000
										CHANNELS 3 Xrotation Yrotation Zrotation
										JOINT mixamorig:RightHandMiddle3
										{
											OFFSET -2.950897 0.000000 0.000000
											CHANNELS 3 Xrotation Yrotation Zrotation
											JOINT mixamorig:RightHandMiddle4
											{
												OFFSET -2.833900 0.000000 0.000000
												CHANNELS 3 Xrotation Yrotation Zrotation
												End Site
												{
													OFFSET 0.000000 2.833893 0.001318
												}
											}
										}
									}
								}
								JOINT mixamorig:RightHandIndex1
								{
									OFFSET -9.108299 -0.517853 2.259859
									CHANNELS 3 Xrotation Yrotation Zrotation
									JOINT mixamorig:RightHandIndex2
									{
										OFFSET -3.676399 0.000000 0.000000
										CHANNELS 3 Xrotation Yrotation Zrotation
										JOINT mixamorig:RightHandIndex3
										{
											OFFSET -2.883102 0.000000 0.000000
											CHANNELS 3 Xrotation Yrotation Zrotation
											JOINT mixamorig:RightHandIndex4
											{
												OFFSET -2.392700 0.000000 0.000000
												CHANNELS 3 Xrotation Yrotation Zrotation
												End Site
												{
													OFFSET 0.000000 2.392700 0.001113
												}
											}
										}
									}
								}
								JOINT mixamorig:RightHandThumb1
								{
									OFFSET -2.464798 -1.573944 2.681868
									CHANNELS 3 Xrotation Yrotation Zrotation
									JOINT mixamorig:RightHandThumb2
									{
										OFFSET -3.229782 -1.864716 1.864716
										CHANNELS 3 Xrotation Yrotation Zrotation
										JOINT mixamorig:RightHandThumb3
										{
											OFFSET -2.652542 -1.531448 1.531448
											CHANNELS 3 Xrotation Yrotation Zrotation
											JOINT mixamorig:RightHandThumb4
											{
												OFFSET -1.954605 -1.128494 1.128493
												CHANNELS 3 Xrotation Yrotation Zrotation
												End Site
												{
													OFFSET 0.000412 2.523392 0.000704
												}
											}
										}
									}
								}
							}
						}
					}
				}
			}
		}
	}
	JOINT mixamorig:LeftUpLeg
	{
		OFFSET 8.207800 -6.751701 -1.599600
		CHANNELS 3 Xrotation Yrotation Zrotation
		JOINT mixamorig:LeftLeg
		{
			OFFSET 0.000000 -44.370499 0.284600
			CHANNELS 3 Xrotation Yrotation Zrotation
			JOINT mixamorig:LeftFoot
			{
				OFFSET 0.000000 -44.427898 -2.982200
				CHANNELS 3 Xrotation Yrotation Zrotation
				JOINT mixamorig:LeftToeBase
				{
					OFFSET 0.000000 -8.728700 10.710600
					CHANNELS 3 Xrotation Yrotation Zrotation
					JOINT mixamorig:LeftToe_End
					{
						OFFSET 0.000000 -0.000700 9.278099
						CHANNELS 3 Xrotation Yrotation Zrotation
						End Site
						{
							OFFSET 0.000000 9.278100 0.000000
						}
					}
				}
			}
		}
	}
	JOINT mixamorig:RightUpLeg
	{
		OFFSET -8.207800 -6.751701 -1.599600
		CHANNELS 3 Xrotation Yrotation Zrotation
		JOINT mixamorig:RightLeg
		{
			OFFSET 0.000000 -44.370499 0.286200
			CHANNELS 3 Xrotation Yrotation Zrotation
			JOINT mixamorig:RightFoot
			{
				OFFSET 0.000000 -44.427700 -2.983800
				CHANNELS 3 Xrotation Yrotation Zrotation
				JOINT mixamorig:RightToeBase
				{
					OFFSET 0.000000 -8.728700 10.710600
					CHANNELS 3 Xrotation Yrotation Zrotation
					JOINT mixamorig:RightToe_End
					{
						OFFSET 0.000000 -0.000700 9.278100
						CHANNELS 3 Xrotation Yrotation Zrotation
						End Site
						{
							OFFSET 0.000000 9.278100 0.000000
						}
					}
				}
			}
		}
	}
}
MOTION
Frames: 4
Frame Time: 0.033333
-0.326509 103.482422 2.116872 -4.226427 -5.017418 -3.075876 2.740146 1.737839 2.860650 0.985239 0.424999 1.618279 0.959155 0.446926 1.621957 5.160587 -0.173863 0.626289 -7.362279 1.296757 -0.189150 0.000000 0.000000 0.000000 0.000000 0.000000 0.000000 0.000000 0.000000 0.000000 1.259509 -16.634752 -11.575422 3.703893 -20.041831 -71.119358 -0.000001 -1.436051 0.000014 -32.245791 -0.930771 -6.746410 -0.663005 2.160312 4.832505 11.853567 25.421609 17.058326 -13.813939 3.537269 9.035987 0.000000 -0.000001 -0.000000 0.019862 -0.969580 -7.593546 0.267868 1.752892 -17.375718 0.057682 0.820953 -8.038009 -0.000000 -0.000001 -0.000005 -0.076312 2.665777 -15.696832 0.268783 1.755804 -17.405504 0.300525 1.853973 -18.413345 -0.000000 -0.000001 0.000000 0.136908 3.641769 -21.133531 0.386624 2.094789 -20.911929 0.283044 1.800641 -17.864992 -0.000000 -0.000001 0.000003 0.927724 5.555919 -27.128031 0.268795 1.755846 -17.405880 0.241910 1.667697 -16.505912 -0.000001 0.000000 -0.000001 1.289630 14.922672 14.597735 13.662159 27.696479 58.223688 0.000003 6.534126 -0.000011 -20.022694 -0.665510 6.195919 0.748877 -4.885241 26.473762 0.214454 -1.398379 17.437249 0.193007 -1.328182 16.535818 -0.000001 -0.000003 -0.000001 0.030605 -3.075756 20.451010 0.308438 -1.668284 20.948549 0.225819 -1.434043 17.897085 -0.000001 -0.000001 -0.000001 -0.136228 -2.205105 14.998882 0.214449 -1.398342 17.436887 0.239768 -1.476530 18.446270 0.000000 -0.000002 0.000002 0.038556 1.262288 6.823702 0.213719 -1.396026 17.407053 0.046029 -0.653849 8.053211 -0.000001 -0.000001 -0.000001 -1.665249 -0.174480 -4.219036 12.710962 -29.825326 -16.130950 -15.549417 -3.559426 -12.707143 -0.000000 -0.000001 -0.000002 -9.011096 14.836052 9.550630 10.838668 1.976772 4.271013 1.728599 0.489942 -7.322388 -4.879311 -0.000004 0.000004 0.000000 0.000001 0.000000 1.576370 -10.693338 3.009988 7.306504 -9.766184 -3.316765 -4.213712 -1.615511 3.191725 -6.868194 0.000013 -0.000001 -0.000001 -0.000003 -0.000000 
-0.319823 103.485741 2.115527 -4.220197 -5.019832 -3.080842 2.726520 1.735611 2.854961 0.981932 0.424157 1.615727 0.955847 0.446069 1.619442 5.143209 -0.173635 0.626398 -7.383078 1.291524 -0.177276 -0.000000 -0.000000 0.000000 -0.000000 -0.000000 0.000000 -0.000000 -0.000000 0.000000 1.259606 -16.628150 -11.583677 3.733676 -20.040718 -71.116462 -0.000017 -1.430470 0.000014 -32.229938 -0.926538 -6.742904 -0.663005 2.160312 4.832504 11.853563 25.421604 17.058326 -13.813939 3.537268 9.035984 -0.000000 0.000003 0.000002 0.019863 -0.969580 -7.593546 0.267870 1.752893 -17.375716 0.057682 0.820953 -8.038003 0.000001 -0.000000 -0.000001 -0.076311 2.665776 -15.696832 0.268781 1.755804 -17.405503 0.300525 1.853974 -18.413345 -0.000000 0.000000 0.000001 0.136907 3.641770 -21.133532 0.386623 2.094789 -20.911934 0.283043 1.800642 -17.864993 -0.000000 -0.000001 0.000002 0.927725 5.555918 -27.128028 0.268796 1.755845 -17.405878 0.241909 1.667696 -16.505912 0.000000 0.000000 -0.000002 1.290507 14.915704 14.601886 13.683342 27.669250 58.219276 0.000002 6.558983 0.000013 -19.995345 -0.678193 6.200167 0.748879 -4.885241 26.473760 0.214456 -1.398380 17.437248 0.193009 -1.328184 16.535818 -0.000000 0.000004 0.000002 0.030608 -3.075755 20.451016 0.308439 -1.668284 20.948549 0.225823 -1.434044 17.897083 0.000001 -0.000000 0.000002 -0.136227 -2.205104 14.998882 0.214449 -1.398342 17.436884 0.239767 -1.476530 18.446271 0.000001 0.000001 -0.000000 0.038557 1.262288 6.823703 0.213716 -1.396026 17.407053 0.046025 -0.653848 8.053215 -0.000002 0.000000 0.000000 -1.665249 -0.174479 -4.219036 12.710960 -29.825326 -16.130953 -15.549421 -3.559427 -12.707140 0.000001 0.000000 -0.000000 -9.004179 14.829271 9.545860 10.812550 1.998968 4.273689 1.736577 0.489302 -7.321899 -4.873600 -0.000001 -0.000001 0.000000 0.000000 0.000000 1.593021 -10.707229 3.007201 7.261413 -9.766364 -3.302721 -4.189395 -1.592339 3.185032 -6.890656 0.000006 -0.000000 -0.000001 0.000000 0.000000 
-0.314502 103.489349 2.114476 -4.214387 -5.019124 -3.087482 2.713173 1.735190 2.849565 0.978498 0.424044 1.613182 0.952408 0.445949 1.616931 5.129907 -0.174386 0.622751 -7.395566 1.279182 -0.167007 0.000000 -0.000000 -0.000000 0.000000 -0.000000 -0.000000 0.000000 -0.000000 -0.000000 1.257769 -16.632381 -11.594681 3.759575 -20.029265 -71.112439 0.000002 -1.423008 0.000024 -32.218965 -0.922933 -6.737965 -0.663005 2.160312 4.832504 11.853564 25.421604 17.058326 -13.813939 3.537272 9.035987 0.000000 0.000000 -0.000003 0.019862 -0.969580 -7.593546 0.267868 1.752893 -17.375720 0.057681 0.820953 -8.038003 -0.000000 0.000000 -0.000002 -0.076312 2.665776 -15.696828 0.268782 1.755804 -17.405504 0.300525 1.853974 -18.413341 0.000000 -0.000000 -0.000003 0.136908 3.641769 -21.133531 0.386624 2.094789 -20.911930 0.283043 1.800641 -17.864988 0.000000 0.000001 -0.000002 0.927726 5.555918 -27.128033 0.268796 1.755845 -17.405880 0.241910 1.667698 -16.505915 -0.000001 0.000000 -0.000004 1.292036 14.905173 14.605910 13.709360 27.655248 58.213327 0.000004 6.571388 0.000012 -19.985393 -0.682373 6.212936 0.748874 -4.885241 26.473765 0.214450 -1.398380 17.437251 0.193009 -1.328183 16.535811 0.000001 0.000002 0.000001 0.030604 -3.075756 20.451016 0.308439 -1.668283 20.948545 0.225821 -1.434040 17.897083 0.000001 0.000002 -0.000001 -0.136230 -2.205105 14.998882 0.214449 -1.398342 17.436884 0.239772 -1.476528 18.446268 -0.000000 -0.000002 -0.000002 0.038553 1.262288 6.823703 0.213718 -1.396026 17.407055 0.046029 -0.653849 8.053213 -0.000001 -0.000000 -0.000002 -1.665252 -0.174479 -4.219037 12.710966 -29.825329 -16.130953 -15.549421 -3.559425 -12.707133 -0.000000 -0.000001 -0.000001 -8.996538 14.823753 9.544179 10.783801 2.014458 4.276024 1.745870 0.488971 -7.325610 -4.865133 0.000008 -0.000000 0.000000 0.000000 0.000000 1.615593 -10.719196 3.009273 7.207491 -9.766105 -3.290220 -4.161446 -1.574434 3.177343 -6.903408 -0.000010 -0.000002 -0.000000 -0.000000 -0.000000 
-0.312144 103.490555 2.115437 -4.204368 -5.020414 -3.094963 2.708685 1.734268 2.843403 0.977001 0.423722 1.610842 0.950909 0.445627 1.614601 5.121614 -0.172512 0.614252 -7.410663 1.280176 -0.169709 -0.000000 0.000000 0.000000 -0.000000 0.000000 0.000000 -0.000000 0.000000 0.000000 1.256754 -16.629571 -11.607813 3.766419 -20.018547 -71.098185 0.000000 -1.423195 0.000024 -32.213949 -0.930103 -6.723042 -0.663005 2.160313 4.832504 11.853564 25.421604 17.058322 -13.813940 3.537270 9.035987 0.000000 -0.000000 0.000002 0.019863 -0.969580 -7.593546 0.267869 1.752892 -17.375718 0.057683 0.820954 -8.038005 0.000001 0.000000 -0.000001 -0.076311 2.665777 -15.696832 0.268782 1.755804 -17.405504 0.300526 1.853974 -18.413340 0.000000 -0.000001 -0.000001 0.136908 3.641771 -21.133532 0.386623 2.094789 -20.911934 0.283043 1.800641 -17.864993 0.000000 0.000001 0.000002 0.927724 5.555919 -27.128033 0.268797 1.755846 -17.405882 0.241911 1.667697 -16.505914 0.000000 0.000000 -0.000003 1.293484 14.894230 14.611622 13.727088 27.668926 58.196067 0.000003 6.565651 0.000012 -20.002802 -0.676180 6.218323 0.748880 -4.885241 26.473764 0.214456 -1.398379 17.437251 0.193008 -1.328182 16.535816 0.000000 0.000001 0.000001 0.030608 -3.075755 20.451010 0.308439 -1.668284 20.948545 0.225819 -1.434041 17.897085 -0.000000 0.000001 0.000002 -0.136228 -2.205105 14.998879 0.214447 -1.398342 17.436884 0.239770 -1.476530 18.446275 -0.000002 -0.000001 -0.000001 0.038558 1.262288 6.823702 0.213719 -1.396026 17.407053 0.046028 -0.653851 8.053214 0.000001 0.000000 -0.000000 -1.665248 -0.174480 -4.219036 12.710960 -29.825326 -16.130952 -15.549416 -3.559428 -12.707140 0.000001 -0.000001 0.000002 -9.007593 14.818128 9.550341 10.783759 2.015585 4.278325 1.745955 0.489046 -7.328123 -4.867956 0.000002 0.000001 -0.000000 0.000001 0.000000 1.623124 -10.714763 3.018965 7.175238 -9.765940 -3.288935 -4.145154 -1.571082 3.175205 -6.903573 -0.000007 -0.000002 0.000000 -0.000000 -0.000000 
